# xmcd
# 
# Track frame offsets:
#     183
#     13400
#     28305
#     43873
#     58920
#     75410
#     91323
#     108165
#     120925
#     135003
#     151333
#     167170
#     182968
#     203413
#     221585
#     238498
#     256365
#     270433
#     289630
#     305493
# 
# Disc length: 4332
# 
# Revision: 0
# Processed by: cddbd v1.5.2PL0 Copyright (c) Steve Scherf et al.
# Submitted via: BonkEnc v1.0
# 
DISCID=1410ea14
DTITLE=Olivia Newton-John - Back To Basics- The Essential Collection
DYEAR=1999
DGENRE=Country
TTITLE0=If Not For You
TTITLE1=Banks Of The Ohio
TTITLE2=What Is Life
TTITLE3=Take Me Home Country Roads
TTITLE4=I Honestly Love You
TTITLE5=Have You Never Been Mellow
TTITLE6=Sam
TTITLE7=You're The One That I Want
TTITLE8=Hopelessly Devoted To You
TTITLE9=Summer Nights
TTITLE10=A Little More Love
TTITLE11=Xanadu
TTITLE12=Magic
TTITLE13=Suddenly
TTITLE14=Physical
TTITLE15=The Rumour
TTITLE16=Not Gonna Be The One
TTITLE17=I Need Love
TTITLE18=I Want To Be Wanted
TTITLE19=Deeper Than A River
EXTD=YEAR: 1999
EXTT0=
EXTT1=
EXTT2=
EXTT3=
EXTT4=
EXTT5=
EXTT6=
EXTT7=
EXTT8=
EXTT9=
EXTT10=
EXTT11=
EXTT12=
EXTT13=
EXTT14=
EXTT15=
EXTT16=
EXTT17=
EXTT18=
EXTT19=
PLAYORDER=
